<svg width="280" height="27" viewBox="0 0 280 27" fill="none" xmlns="http://www.w3.org/2000/svg">
<g clip-path="url(#clip0_951_1219)">
<path d="M5.79097 15.23V21.8015C5.79097 22.7293 5.82597 23.403 5.89519 23.821C5.96441 24.2397 6.06941 24.5556 6.20863 24.7678C6.34785 24.9807 6.53762 25.1541 6.77795 25.2895C7.01827 25.4249 7.42971 25.5761 8.01224 25.7439V26.6907H-0.000198806V25.7439C0.784557 25.5381 1.31032 25.3093 1.57554 25.0575C1.84075 24.8058 2.01497 24.4487 2.09741 23.9848C2.17985 23.5209 2.22107 22.8124 2.22107 21.8585V5.14121C2.22107 4.25218 2.18918 3.60461 2.12619 3.1985C2.06241 2.79238 1.95819 2.47731 1.81275 2.25169C1.66731 2.02606 1.47365 1.84557 1.23332 1.7102C0.992996 1.57482 0.581563 1.42362 -0.000976562 1.25579V0.309769H9.39821C12.3607 0.309769 14.5757 0.85759 16.0441 1.95244C17.5125 3.04808 18.2467 4.74855 18.2467 7.05462C18.2467 8.82 17.7684 10.321 16.8133 11.5575C15.8575 12.7941 14.4241 13.7607 12.5123 14.4565V14.6109C13.2847 14.9331 13.9457 15.3939 14.4964 15.9931C15.047 16.5924 15.6576 17.5234 16.3288 18.7861L18.0375 21.9558C18.5314 22.8837 18.9553 23.5922 19.3099 24.0822C19.6638 24.5722 20.0247 24.9459 20.3926 25.2032C20.7597 25.4613 21.2473 25.6418 21.8547 25.7447V26.6915H16.5948C16.1134 26.0091 15.6576 25.2744 15.2275 24.4883C14.7966 23.7022 14.3727 22.9034 13.9551 22.092L12.2845 18.8644C11.7781 17.8852 11.3636 17.164 11.0408 16.7001C10.7181 16.2362 10.4202 15.9108 10.1487 15.724C9.87653 15.5371 9.58565 15.4081 9.27532 15.3377C8.965 15.2672 8.4999 15.2316 7.88003 15.2316H5.79097V15.23ZM5.79097 2.08781V13.5683H7.9368C9.03811 13.5683 9.93019 13.4884 10.6138 13.3269C11.2975 13.1662 11.9306 12.8598 12.5123 12.4085C13.0941 11.9573 13.56 11.3295 13.9076 10.5244C14.2553 9.71931 14.4295 8.73054 14.4295 7.55732C14.4295 6.3841 14.2234 5.31537 13.8127 4.50393C13.4013 3.69249 12.7776 3.07342 11.9422 2.6483C11.1069 2.22319 9.97997 2.01023 8.56212 2.01023C7.42271 2.01023 6.49873 2.03636 5.7902 2.08781H5.79097Z" fill="#706E6E"/>
<path d="M59.0337 0.309532V6.14636H57.1725C56.9828 5.51542 56.786 4.96126 56.5838 4.4839C56.3808 4.00733 56.1723 3.60754 55.9569 3.28534C55.7415 2.96314 55.5043 2.70586 55.2445 2.5119C54.9847 2.31874 54.6775 2.18653 54.3236 2.11608C53.969 2.04562 53.5451 2.01 53.0512 2.01H47.0508V12.1376H51.1146C51.6715 12.1376 52.1086 12.0576 52.4251 11.8961C52.7417 11.7354 53.0046 11.4615 53.213 11.0744C53.4214 10.6873 53.6213 10.0824 53.8111 9.25755H55.596V16.6793H53.8111C53.6338 15.9058 53.4378 15.3232 53.2223 14.9305C53.0069 14.5378 52.7502 14.2576 52.4531 14.0898C52.1552 13.9227 51.7096 13.8388 51.1146 13.8388H47.0508V24.9908H52.9563C53.5762 24.9908 54.0794 24.9362 54.466 24.8261C54.8517 24.7169 55.1846 24.53 55.463 24.2656C55.7415 24.002 55.988 23.6569 56.2035 23.2317C56.4189 22.8066 56.5986 22.3657 56.7448 21.9081C56.8902 21.4505 57.0893 20.784 57.3429 19.9076H59.2227L58.8618 26.6913H41.2791V25.7444C42.0639 25.5386 42.5896 25.3098 42.8548 25.0581C43.12 24.8063 43.2943 24.4493 43.3767 23.9854C43.4591 23.5215 43.5004 22.813 43.5004 21.859V5.14097C43.5004 4.25195 43.4685 3.60438 43.4055 3.19826C43.3417 2.79215 43.2375 2.47707 43.092 2.25145C42.9466 2.02583 42.7529 1.84533 42.5126 1.70996C42.2723 1.57459 41.8609 1.42338 41.2783 1.25555V0.309532H59.0322H59.0337Z" fill="#706E6E"/>
<path d="M80.7564 26.6913V25.7444C81.3382 25.5901 81.7566 25.442 82.0094 25.2995C82.2622 25.1578 82.4589 24.9773 82.5982 24.758C82.7374 24.5388 82.8385 24.2237 82.9023 23.8112C82.9653 23.3988 82.9972 22.748 82.9972 21.859V5.14097C82.9972 4.23928 82.9653 3.58538 82.9023 3.17926C82.8385 2.77315 82.7343 2.46124 82.5888 2.24195C82.4434 2.02266 82.2497 1.84612 82.0094 1.71075C81.7691 1.57538 81.3514 1.42417 80.7564 1.25634V0.309532H89.073C91.4654 0.309532 93.4245 0.57711 94.9497 1.11147C96.4749 1.64663 97.7629 2.43511 98.8136 3.4793C99.8643 4.52269 100.649 5.821 101.168 7.37342C101.687 8.92664 101.946 10.7783 101.946 12.93C101.946 15.0817 101.702 17.0244 101.215 18.6798C100.728 20.3359 100.016 21.7237 99.0788 22.8446C98.2684 23.8239 97.2752 24.629 96.0977 25.2607C95.1224 25.7761 93.9962 26.1434 92.7175 26.3627C91.4389 26.582 89.7426 26.6913 87.6287 26.6913H80.7549H80.7564ZM86.5476 24.8934C87.0539 24.9449 87.8006 24.971 88.7883 24.971C89.8515 24.971 90.8012 24.8808 91.6365 24.7003C92.4718 24.5198 93.2316 24.2363 93.9153 23.85C94.5989 23.4637 95.2126 22.9254 95.757 22.2358C96.3014 21.5463 96.7448 20.7547 97.0862 19.8585C97.4276 18.9632 97.6781 17.9681 97.836 16.8724C97.9938 15.7776 98.0732 14.579 98.0732 13.2775C98.0732 10.6619 97.703 8.5134 96.9625 6.83193C96.2221 5.15047 95.1776 3.92341 93.8297 3.14997C92.4819 2.37653 90.8704 1.9902 88.9975 1.9902C88.1366 1.9902 87.3199 2.01633 86.5484 2.06779V24.8934H86.5476Z" fill="#706E6E"/>
<path d="M141.119 0.870021V6.22395H139.239C138.935 5.10297 138.55 4.21078 138.081 3.54738C137.613 2.88398 137.069 2.41057 136.448 2.12716C135.827 1.84375 135.081 1.70204 134.207 1.70204C132.903 1.70204 131.742 2.14378 130.723 3.02568C129.704 3.90837 128.903 5.23597 128.321 7.00689C127.739 8.7786 127.448 10.9208 127.448 13.4335C127.448 15.9462 127.688 18.1137 128.17 19.8989C128.65 21.6833 129.36 23.0299 130.296 23.9387C131.232 24.8467 132.385 25.3011 133.752 25.3011C134.789 25.3011 135.638 25.1499 136.296 24.8467C136.954 24.5443 137.507 24.0638 137.957 23.4067C138.406 22.7496 138.833 21.783 139.239 20.5077H141.119V26.035C139.929 26.3572 138.71 26.5986 137.463 26.7601C136.216 26.9208 134.846 27.0016 133.352 27.0016C130.137 27.0016 127.706 25.8933 126.06 23.6774C124.415 21.4616 123.592 18.1565 123.592 13.7628C123.592 11.0055 124.019 8.5894 124.874 6.51527C125.728 4.44115 126.984 2.83648 128.643 1.70284C130.301 0.569194 132.282 0.00237274 134.586 0.00237274C135.738 0.00237274 136.801 0.0633298 137.777 0.186035C138.751 0.308741 139.866 0.537528 141.119 0.872396L141.119 0.870021Z" fill="#706E6E"/>
<path d="M168.426 15.2298V21.8012C168.426 22.729 168.461 23.4027 168.53 23.8207C168.599 24.2395 168.704 24.5554 168.843 24.7675C168.982 24.9805 169.172 25.1539 169.413 25.2892C169.653 25.4246 170.064 25.5758 170.647 25.7436V26.6905H162.634V25.7436C163.418 25.5378 163.944 25.309 164.209 25.0573C164.475 24.8055 164.649 24.4485 164.731 23.9846C164.814 23.5207 164.855 22.8122 164.855 21.8582V5.14097C164.855 4.25195 164.823 3.60438 164.76 3.19826C164.696 2.79215 164.592 2.47707 164.447 2.25145C164.301 2.02583 164.107 1.84533 163.867 1.70996C163.627 1.57459 163.215 1.42338 162.633 1.25555V0.309532H172.032C174.994 0.309532 177.21 0.857354 178.678 1.9522C180.146 3.04785 180.881 4.74831 180.881 7.05439C180.881 8.81976 180.402 10.3207 179.447 11.5573C178.491 12.7938 177.058 13.7604 175.146 14.4563V14.6107C175.918 14.9329 176.58 15.3936 177.13 15.9929C177.681 16.5922 178.291 17.5232 178.963 18.7858L180.671 21.9556C181.165 22.8834 181.589 23.5919 181.944 24.082C182.298 24.572 182.658 24.9457 183.026 25.2029C183.393 25.461 183.881 25.6415 184.489 25.7444V26.6913H179.229C178.747 26.0089 178.291 25.2742 177.861 24.4881C177.43 23.702 177.007 22.9032 176.589 22.0918L174.918 18.8642C174.412 17.8849 173.997 17.1637 173.675 16.6998C173.352 16.2359 173.054 15.9106 172.783 15.7237C172.51 15.5369 172.219 15.4079 171.909 15.3374C171.599 15.267 171.134 15.2313 170.514 15.2313H168.425L168.426 15.2298ZM168.426 2.08758V13.5681H170.571C171.673 13.5681 172.565 13.4881 173.248 13.3266C173.932 13.1659 174.565 12.8596 175.147 12.4083C175.729 11.9571 176.195 11.3293 176.542 10.5242C176.89 9.71908 177.064 8.73031 177.064 7.55708C177.064 6.38386 176.858 5.31513 176.447 4.50369C176.036 3.69225 175.412 3.07318 174.577 2.64806C173.742 2.22295 172.615 2.01 171.197 2.01C170.057 2.01 169.133 2.03612 168.425 2.08758H168.426Z" fill="#706E6E"/>
<path d="M214.034 27C212.515 27 211.132 26.7451 209.886 26.2369C208.639 25.7278 207.569 24.9354 206.677 23.8595C205.785 22.7837 205.094 21.4086 204.607 19.7334C204.119 18.0583 203.876 16.0547 203.876 13.7225C203.876 10.8496 204.306 8.38198 205.167 6.31974C206.028 4.25828 207.258 2.68923 208.861 1.61338C210.462 0.537528 212.319 -0.000793457 214.434 -0.000793457C216.687 -0.000793457 218.583 0.505071 220.121 1.5168C221.659 2.52853 222.817 4.01683 223.596 5.9817C224.375 7.94658 224.763 10.3397 224.763 13.162C224.763 16.1774 224.32 18.7217 223.434 20.7966C222.548 22.8715 221.298 24.424 219.684 25.4547C218.07 26.4854 216.187 27.0008 214.035 27.0008L214.034 27ZM207.787 13.181C207.787 17.1368 208.354 20.1451 209.487 22.2066C210.619 24.268 212.275 25.2987 214.452 25.2987C215.832 25.2987 217.002 24.8515 217.965 23.9553C218.927 23.06 219.648 21.749 220.13 20.0224C220.61 18.2958 220.851 16.2795 220.851 13.9726C220.851 11.1638 220.57 8.83481 220.007 6.98551C219.444 5.13701 218.674 3.79358 217.7 2.95602C216.725 2.11845 215.592 1.69967 214.301 1.69967C213.162 1.69967 212.184 1.97041 211.367 2.51111C210.551 3.05181 209.873 3.82208 209.336 4.82035C208.798 5.81941 208.406 7.02668 208.158 8.44452C207.912 9.86237 207.788 11.4401 207.788 13.1794L207.787 13.181Z" fill="#706E6E"/>
<path d="M262.018 5.23755L255.942 26.8266H252.866L247.341 5.83683C247.113 4.96047 246.904 4.24561 246.714 3.69146C246.525 3.1373 246.335 2.70269 246.145 2.38682C245.955 2.07095 245.749 1.83267 245.528 1.67196C245.307 1.51126 244.987 1.37272 244.569 1.25635V0.309532H252.696V1.25635C251.911 1.41072 251.364 1.64267 251.053 1.95221C250.743 2.26174 250.588 2.69319 250.588 3.24734C250.588 3.69858 250.645 4.23295 250.759 4.85123C250.874 5.4695 251.032 6.17249 251.234 6.95781L255.05 22.2264L261.164 0.309532H264.354L269.31 22.2461L273.791 7.49929C274.336 5.70858 274.608 4.43323 274.608 3.67246C274.608 2.91168 274.446 2.31953 274.123 1.972C273.801 1.62446 273.265 1.38618 272.519 1.25714V0.309532H280V1.25635C279.62 1.38538 279.316 1.53026 279.088 1.69096C278.861 1.85246 278.642 2.07095 278.434 2.34803C278.224 2.62511 277.997 3.05339 277.75 3.63367C277.503 4.21395 277.215 4.99293 276.886 5.9722L269.974 26.8266H267.259L262.018 5.23755Z" fill="#706E6E"/>
</g>
<defs>
<clipPath id="clip0_951_1219">
<rect width="280" height="27" fill="white"/>
</clipPath>
</defs>
</svg>
